<svg width="21" height="25" viewBox="0 0 21 25" fill="none" xmlns="http://www.w3.org/2000/svg">
<path fill-rule="evenodd" clip-rule="evenodd" d="M18.4948 2.5H17.3389V0H15.027V2.5H5.77963V0H3.46778V2.5H2.31185C1.02877 2.5 0 3.625 0 5V22.5C0 23.875 1.02877 25 2.31185 25H18.4948C19.7663 25 20.8067 23.875 20.8067 22.5V5C20.8067 3.625 19.7663 2.5 18.4948 2.5ZM18.4948 22.5H2.31185V8.75H18.4948V22.5ZM4.04574 13.75C4.04574 12.025 5.34037 10.625 6.93555 10.625C8.53073 10.625 9.82537 12.025 9.82537 13.75C9.82537 15.475 8.53073 16.875 6.93555 16.875C5.34037 16.875 4.04574 15.475 4.04574 13.75Z" fill="#56BF7E"/>
</svg>
