<svg width="20" height="18" viewBox="0 0 20 18" fill="none" xmlns="http://www.w3.org/2000/svg">
<path fill-rule="evenodd" clip-rule="evenodd" d="M2.18277 4.54165C1.08944 4.54165 0.203125 5.42796 0.203125 6.52129V11.8631C0.203125 13.3967 0.203125 14.1635 0.418823 14.7799C0.805167 15.884 1.67326 16.7521 2.77737 17.1384C3.3938 17.3541 4.1606 17.3541 5.6942 17.3541H13.9308C15.4644 17.3541 16.2312 17.3541 16.8476 17.1384C17.9517 16.7521 18.8198 15.884 19.2062 14.7799C19.4219 14.1635 19.4219 13.3967 19.4219 11.8631V6.52129C19.4219 5.42796 18.5356 4.54165 17.4422 4.54165C16.6924 4.54165 16.0069 4.118 15.6716 3.44733L14.7951 1.69442L14.7884 1.68098C14.3542 0.818621 13.4722 0.2735 12.5067 0.270823L12.4917 0.270813H7.13331L7.11827 0.270823C6.15279 0.2735 5.27077 0.818621 4.8366 1.68098L4.82986 1.69442L3.95341 3.44733C3.61807 4.118 2.9326 4.54165 2.18277 4.54165ZM11.5206 9.88021C11.5206 10.8237 10.7558 11.5885 9.81229 11.5885C8.8688 11.5885 8.10396 10.8237 8.10396 9.88021C8.10396 8.93672 8.8688 8.17188 9.81229 8.17188C10.7558 8.17188 11.5206 8.93672 11.5206 9.88021ZM14.0831 9.88021C14.0831 12.2389 12.171 14.151 9.81229 14.151C7.45358 14.151 5.54146 12.2389 5.54146 9.88021C5.54146 7.52149 7.45358 5.60938 9.81229 5.60938C12.171 5.60938 14.0831 7.52149 14.0831 9.88021Z" fill="#56BF7E"/>
</svg>
