<svg width="92" height="96" viewBox="0 0 92 96" fill="none" xmlns="http://www.w3.org/2000/svg">
<path fill-rule="evenodd" clip-rule="evenodd" d="M42.773 1.9727C43.5855 1.03911 44.7613 0.5 45.9996 0.5C47.2379 0.5 48.4137 1.03906 49.2262 1.9727L54.6207 8.1954C55.5699 9.2892 56.7926 10.1016 58.1715 10.547C59.5465 10.9923 61.0153 11.0548 62.4254 10.7306L70.4488 8.86729C71.6558 8.58604 72.9215 8.84385 73.9215 9.57432C74.9254 10.3009 75.5621 11.4298 75.6676 12.6602L76.3746 20.8633C76.4996 22.3047 77.0152 23.6797 77.8629 24.8516C78.7145 26.0196 79.8629 26.9375 81.1988 27.5L88.7847 30.707C89.9253 31.1875 90.8003 32.1445 91.1831 33.3203C91.5659 34.4961 91.4175 35.7851 90.7808 36.8437L86.5269 43.8945C85.7769 45.1367 85.3785 46.5547 85.3785 48C85.3785 49.4453 85.773 50.8633 86.5191 52.1016L90.773 59.1524C91.4097 60.2149 91.5581 61.5001 91.1753 62.6758C90.7925 63.8555 89.9175 64.8086 88.7769 65.2891L81.191 68.4961C79.859 69.0586 78.7066 69.9766 77.8551 71.1445C77.0075 72.3125 76.4918 73.6914 76.3668 75.1328L75.6598 83.3359C75.5543 84.5703 74.9176 85.6992 73.9137 86.4218C72.9137 87.1484 71.6442 87.4062 70.441 87.1289L62.4176 85.2655C61.0114 84.9413 59.5387 85.0038 58.1637 85.4491C56.7887 85.8984 55.5621 86.7108 54.6129 87.8007L49.2184 94.0234C48.4137 94.9609 47.2379 95.5 45.9996 95.5C44.7613 95.5 43.5855 94.961 42.773 94.0273L37.3785 87.8046C36.4293 86.7108 35.2066 85.8984 33.8277 85.453C32.4527 85.0077 30.9839 84.9452 29.5738 85.2694L21.5504 87.1328C20.3434 87.414 19.0777 87.1562 18.0777 86.4257C17.0738 85.6992 16.4371 84.5702 16.3316 83.3398L15.6246 75.1367C15.4996 73.6953 14.9839 72.3203 14.1363 71.1484C13.2847 69.9804 12.1363 69.0625 10.8004 68.5L3.21445 65.293C2.07385 64.8126 1.19885 63.8555 0.816053 62.6797C0.441053 61.5 0.589493 60.2149 1.22621 59.1524L5.48011 52.1016C6.2223 50.8633 6.62071 49.4454 6.62071 48C6.62071 46.5546 6.22618 45.1367 5.48011 43.8984L1.22621 36.8476C0.589493 35.7851 0.441053 34.4999 0.823873 33.3242C1.20668 32.1445 2.08167 31.1914 3.22227 30.7109L10.8082 27.5039C12.1402 26.9414 13.2926 26.0234 14.1441 24.8555C14.9917 23.6875 15.5074 22.3086 15.6324 20.8672L16.3394 12.6641C16.4449 11.4297 17.0816 10.3008 18.0855 9.57822C19.0855 8.85166 20.355 8.59384 21.5582 8.87119L29.5816 10.7345C30.9878 11.0587 32.4605 10.9962 33.8355 10.5509C35.2105 10.1017 36.4371 9.2892 37.3863 8.1993L42.773 1.9727ZM23.992 49.6487L37.562 63.2187C38.4448 64.1015 39.8784 64.1015 40.7612 63.2187L68.0032 35.9767C68.886 35.0939 68.886 33.6603 68.0032 32.7775C67.1204 31.8947 65.6868 31.8947 64.804 32.7775L39.163 58.4225L27.19 46.4495C26.3072 45.5667 24.8736 45.5667 23.9908 46.4495C23.1119 47.3323 23.1119 48.7659 23.9908 49.6487H23.992Z" fill="#56BF7E"/>
</svg>
