<svg width="78" height="96" viewBox="0 0 78 96" fill="none" xmlns="http://www.w3.org/2000/svg">
<path fill-rule="evenodd" clip-rule="evenodd" d="M39 0.5C60.223 0.5 77.453 17.73 77.453 38.953C77.453 51.008 71.8983 62.539 64.988 71.941C55.2263 85.238 43.015 94.183 43.015 94.183C43.0111 94.183 43.0111 94.183 43.0111 94.1869C40.6244 95.9408 37.3705 95.9408 34.9799 94.1869C34.9799 94.183 34.9799 94.183 34.976 94.183C34.976 94.183 22.765 85.2377 13.003 71.941C6.09676 62.5348 0.537964 51.003 0.537964 38.953C0.545777 17.73 17.776 0.5 38.999 0.5H39ZM39 23.117C30.2617 23.117 23.168 30.2108 23.168 38.949C23.168 47.6912 30.2618 54.785 39 54.785C47.7382 54.785 54.832 47.6912 54.832 38.953C54.832 30.2148 47.7382 23.117 39 23.117Z" fill="#56BF7E"/>
</svg>
