<svg fill="none" height="15" viewBox="0 0 20 15" width="10" xmlns="http://www.w3.org/2000/svg">
    <g clip-path="url(#clip0_1_4753)">
        <path
            d="M20.0002 10.7475C19.9631 10.3608 19.9198 9.97464 19.889 9.58742C19.793 8.38716 19.7048 7.1869 19.6057 5.98664C19.5781 5.53919 19.3843 5.11819 19.0624 4.80621C18.0998 3.88183 17.1312 2.96389 16.1567 2.05239C15.8178 1.74461 15.4151 1.51546 14.9773 1.38129C13.7839 0.995117 12.5951 0.594857 11.3917 0.242084C10.9194 0.0990327 10.4296 0.021767 9.93625 0.012469C6.85106 -0.00736145 3.76534 0.00203177 0.679629 0.00255363C0.223008 0.00255363 0.0012207 0.228516 0.0012207 0.687224C0.0012207 2.73149 0.0012207 4.77542 0.0012207 6.81899C0.0012207 7.26883 0.219877 7.50105 0.66293 7.50418C1.14199 7.50732 1.52242 7.69466 1.78804 8.09336C2.08028 8.53171 2.35843 8.9805 2.6491 9.41834C3.36508 10.5017 4.33208 11.3215 5.39405 12.048C6.45602 12.7744 7.49241 13.5196 8.54082 14.257C8.93586 14.5341 9.09241 14.5361 9.49581 14.2695C9.85765 14.0358 10.1711 13.7346 10.419 13.3823C10.9121 12.6726 10.9794 11.9123 10.6496 11.1227C10.5818 10.9599 10.6167 10.8874 10.7342 10.7851C11.2946 10.2987 11.8478 9.80451 12.4041 9.31188C12.6277 9.12099 12.8065 8.88311 12.9276 8.61521C13.0488 8.3473 13.1093 8.05597 13.1049 7.76198C13.1075 6.94789 13.1049 6.13432 13.1049 5.32075V5.08592C13.4503 5.08267 13.7847 5.20677 14.0443 5.43452C14.5103 5.852 14.9664 6.27887 15.4053 6.72297C15.7669 7.08827 15.8593 7.56837 15.9052 8.06518C15.9668 8.7321 16.0393 9.39851 16.1338 10.0618C16.2063 10.55 16.463 10.992 16.8512 11.2969C17.2394 11.6017 17.7297 11.7463 18.2212 11.7009C18.5776 11.6691 18.9335 11.6253 19.291 11.6086C19.6297 11.5929 19.877 11.464 20.0033 11.1389L20.0002 10.7475ZM18.7837 10.4709C18.5651 10.4918 18.3663 10.5095 18.1653 10.5294C17.6957 10.5763 17.3231 10.2784 17.2704 9.8066C17.1874 9.06974 17.1138 8.33184 17.0251 7.59603C16.9508 6.91665 16.6415 6.28459 16.1505 5.80921C15.746 5.4126 15.3364 5.02121 14.9179 4.63974C14.4033 4.17007 13.7927 3.91645 13.0945 3.90914C12.0143 3.90079 10.9335 3.89766 9.85275 3.90914C8.74382 3.92323 7.87337 4.40542 7.26176 5.32754C6.53534 6.42343 6.57604 7.94463 7.40735 9.08905C7.77265 9.59525 8.25223 10.0221 8.68224 10.4824C8.89098 10.7057 9.12268 10.9093 9.31368 11.1467C9.85171 11.8152 9.79222 12.4633 9.16756 13.0463C9.06945 13.1376 9.00422 13.1506 8.88837 13.0666C7.76952 12.2718 6.6444 11.4859 5.52294 10.6943C4.71678 10.1281 4.02853 9.41043 3.49659 8.58129C3.2294 8.16381 2.97056 7.74371 2.68198 7.34293C2.33234 6.85813 1.86789 6.52519 1.26984 6.4036C1.24122 6.39553 1.21356 6.38433 1.18739 6.3702V1.17411H1.31994C4.19692 1.17411 7.07441 1.16785 9.95138 1.18246C10.3288 1.18912 10.7033 1.24993 11.0635 1.36302C12.2508 1.72345 13.4318 2.10405 14.6063 2.50484C14.9143 2.6096 15.1982 2.77498 15.4413 2.9912C16.3691 3.83765 17.2709 4.71332 18.1826 5.57698C18.3416 5.72455 18.4364 5.92859 18.4466 6.14528C18.4863 6.70314 18.5353 7.26048 18.5792 7.81834C18.6454 8.69401 18.7133 9.56915 18.7837 10.4709ZM8.82784 9.00973C9.21348 8.66739 9.57878 8.34489 9.94251 8.02082C10.1674 7.82714 10.3467 7.58611 10.4675 7.31499C10.5883 7.04388 10.6477 6.7494 10.6413 6.45265C10.6413 6.06996 10.6413 5.6864 10.6413 5.30197V5.09323H11.9109C11.9192 5.1137 11.9249 5.13507 11.9282 5.15689C11.9282 6.04769 11.9417 6.9385 11.9198 7.82878C11.9118 8.02341 11.834 8.20865 11.7006 8.35063C11.1057 8.91266 10.4842 9.44652 9.86423 9.99603L8.82784 9.00973ZM8.15464 8.04169C7.55451 6.82891 8.2371 5.32806 9.45406 5.14124C9.45406 5.64743 9.46763 6.15311 9.44519 6.65461C9.42888 6.80411 9.36097 6.94325 9.25315 7.04809C8.90455 7.38781 8.53351 7.70249 8.15464 8.04117V8.04169Z"
            fill="#56BF7E" />
    </g>
    <defs>
        <clipPath id="clip0_1_4753">
            <rect fill="white" height="14.4673" width="20" />
        </clipPath>
    </defs>
</svg>
